D:\school\WTK\thesis\model\3dpredictsim\Results\batch_windlass\Pog_s1_tmt_aCst_d00_k500_WL10_ig24_act_TTC_GRF.mot
nRows=30
nColumns=19

name D:\school\WTK\thesis\model\3dpredictsim\Results\batch_windlass\Pog_s1_tmt_aCst_d00_k500_WL10_ig24_act_TTC_GRF.mot
datacolumns 19
datarows 30
range 0.0000000000 0.3309235010
endheader
time 	ground_force_vx	ground_force_vy	ground_force_vz	ground_force_px	ground_force_py	ground_force_pz	1_ground_force_vx	1_ground_force_vy	1_ground_force_vz	1_ground_force_px	1_ground_force_py	1_ground_force_pz	ground_torque_x	ground_torque_y	ground_torque_z	1_ground_torque_x	1_ground_torque_y	1_ground_torque_z
        0.0000000000	      -53.3434194891	       42.3769583255	        8.2377697271	        0.1549433856	        0.0000000000	        0.0707035043	       80.2562046693	      358.2954176209	       -0.2026229365	       -0.3647751478	        0.0000000000	       -0.0326333496	        0.0000000000	        0.0000000000	        0.0000000000	        0.0000000000	        0.0000000000	        0.0000000000	
        0.0114111552	     -142.8688944013	      142.8363834463	       29.6196423717	        0.1698921694	        0.0000000000	        0.0705238962	       50.2375126318	      252.6092551290	      -10.2781601053	       -0.3531541171	        0.0000000000	       -0.0272240109	        0.0000000000	        0.0000000000	        0.0000000000	        0.0000000000	        0.0000000000	        0.0000000000	
        0.0228223104	      -82.1559186352	      390.9470448941	        5.8098150835	        0.1812632042	        0.0000000000	        0.0689079244	       33.2958521468	      205.4413070687	      -22.5636849035	       -0.3480373803	        0.0000000000	       -0.0249344847	        0.0000000000	        0.0000000000	        0.0000000000	        0.0000000000	        0.0000000000	        0.0000000000	
        0.0342334656	     -122.3324167866	      719.5811759789	      -17.0996065190	        0.1937248786	        0.0000000000	        0.0663010338	       30.0121236672	      171.8063505026	      -23.0594260326	       -0.3478887424	        0.0000000000	       -0.0249467455	        0.0000000000	        0.0000000000	        0.0000000000	        0.0000000000	        0.0000000000	        0.0000000000	
        0.0456446208	     -144.9073917213	      902.4406647180	      -22.9314210254	        0.2009708723	        0.0000000000	        0.0644209103	       20.4294554788	      127.3458780917	      -21.4163444019	       -0.3479124410	        0.0000000000	       -0.0249433661	        0.0000000000	        0.0000000000	        0.0000000000	        0.0000000000	        0.0000000000	        0.0000000000	
        0.0570557760	     -151.6692894219	      918.3990920589	      -22.1733904712	        0.2051703618	        0.0000000000	        0.0630874044	        3.0921719055	       70.6186861726	      -17.9669824860	       -0.3487141253	        0.0000000000	       -0.0252234736	        0.0000000000	        0.0000000000	        0.0000000000	        0.0000000000	        0.0000000000	        0.0000000000	
        0.0684669312	     -135.3280892807	      873.8100137589	      -21.9248134071	        0.2077883418	        0.0000000000	        0.0622991014	       -5.1076439595	       10.0449278711	       -2.8214990718	       -0.3519872098	        0.0000000000	       -0.0244926801	        0.0000000000	        0.0000000000	        0.0000000000	        0.0000000000	        0.0000000000	        0.0000000000	
        0.0798780865	     -119.1813608312	      820.5185274571	      -21.3829993172	        0.2104994315	        0.0000000000	        0.0617362088	       -1.0017434313	        0.8595049475	        0.0281599206	        0.0000000000	        0.0000000000	        0.0000000000	        0.0000000000	        0.0000000000	        0.0000000000	        0.0000000000	        0.0000000000	        0.0000000000	
        0.0912892417	     -106.5742701210	      779.0550389114	      -20.3529571066	        0.2131080702	        0.0000000000	        0.0613453587	       -7.7954629387	        5.5984575634	        0.5278948882	        0.0000000000	        0.0000000000	        0.0000000000	        0.0000000000	        0.0000000000	        0.0000000000	        0.0000000000	        0.0000000000	        0.0000000000	
        0.1027003969	      -93.3066291537	      749.8713042199	      -20.2496313948	        0.2160948789	        0.0000000000	        0.0609917180	       -6.5233057417	        4.0832537774	        0.4778846900	        0.0000000000	        0.0000000000	        0.0000000000	        0.0000000000	        0.0000000000	        0.0000000000	        0.0000000000	        0.0000000000	        0.0000000000	
        0.1141115521	      -80.3450102436	      725.1238755154	      -22.8137574986	        0.2205170593	        0.0000000000	        0.0604566760	       -4.7687220028	        2.7023592379	        0.3694409984	        0.0000000000	        0.0000000000	        0.0000000000	        0.0000000000	        0.0000000000	        0.0000000000	        0.0000000000	        0.0000000000	        0.0000000000	
        0.1255227073	      -70.6294520253	      700.9435258865	      -24.4034186038	        0.2264321108	        0.0000000000	        0.0597013175	       -3.6168094954	        1.8904753653	        0.3085988838	        0.0000000000	        0.0000000000	        0.0000000000	        0.0000000000	        0.0000000000	        0.0000000000	        0.0000000000	        0.0000000000	        0.0000000000	
        0.1369338625	      -63.3719452046	      679.6252269856	      -23.9911536931	        0.2328352489	        0.0000000000	        0.0588588444	       -3.2424147369	        1.5941524978	        0.2806995619	        0.0000000000	        0.0000000000	        0.0000000000	        0.0000000000	        0.0000000000	        0.0000000000	        0.0000000000	        0.0000000000	        0.0000000000	
        0.1483450177	      -57.0494883075	      660.9594539968	      -23.2028200845	        0.2392258463	        0.0000000000	        0.0579809482	       -2.5711299923	        1.2112528580	        0.2187021540	        0.0000000000	        0.0000000000	        0.0000000000	        0.0000000000	        0.0000000000	        0.0000000000	        0.0000000000	        0.0000000000	        0.0000000000	
        0.1597561729	      -51.5762228100	      644.1419793242	      -22.3948217719	        0.2455307327	        0.0000000000	        0.0570786386	       -1.9016026889	        0.8686713888	        0.1549834914	        0.0000000000	        0.0000000000	        0.0000000000	        0.0000000000	        0.0000000000	        0.0000000000	        0.0000000000	        0.0000000000	        0.0000000000	
        0.1711673281	      -46.3524995741	      628.5397637985	      -21.5810930213	        0.2516967579	        0.0000000000	        0.0561644579	       -1.3952034239	        0.6230126092	        0.1067457368	        0.0000000000	        0.0000000000	        0.0000000000	        0.0000000000	        0.0000000000	        0.0000000000	        0.0000000000	        0.0000000000	        0.0000000000	
        0.1825784833	      -41.7440094041	      613.5950214864	      -20.7783464554	        0.2576587005	        0.0000000000	        0.0552489650	       -1.0501934159	        0.4606925330	        0.0741917112	        0.0000000000	        0.0000000000	        0.0000000000	        0.0000000000	        0.0000000000	        0.0000000000	        0.0000000000	        0.0000000000	        0.0000000000	
        0.1939896385	      -37.5404334373	      599.7270912633	      -19.8475416655	        0.2633127948	        0.0000000000	        0.0543602019	       -0.8346629959	        0.3604561399	        0.0537805144	        0.0000000000	        0.0000000000	        0.0000000000	        0.0000000000	        0.0000000000	        0.0000000000	        0.0000000000	        0.0000000000	        0.0000000000	
        0.2054007937	      -33.4943983113	      587.1662732497	      -19.1152717575	        0.2686419228	        0.0000000000	        0.0535037023	       -0.7204214635	        0.3064628361	        0.0417939990	        0.0000000000	        0.0000000000	        0.0000000000	        0.0000000000	        0.0000000000	        0.0000000000	        0.0000000000	        0.0000000000	        0.0000000000	
        0.2168119489	      -29.6787457817	      576.0510548472	      -18.7871968077	        0.2737299421	        0.0000000000	        0.0526603319	       -0.6813062660	        0.2853826475	        0.0353815684	        0.0000000000	        0.0000000000	        0.0000000000	        0.0000000000	        0.0000000000	        0.0000000000	        0.0000000000	        0.0000000000	        0.0000000000	
        0.2282231042	      -26.1524771840	      566.2512116354	      -18.7267090484	        0.2785741014	        0.0000000000	        0.0518309059	       -0.6987823248	        0.2881524590	        0.0325704923	        0.0000000000	        0.0000000000	        0.0000000000	        0.0000000000	        0.0000000000	        0.0000000000	        0.0000000000	        0.0000000000	        0.0000000000	
        0.2396342594	      -22.9239515788	      557.7865607649	      -18.8072144185	        0.2831449803	        0.0000000000	        0.0510239490	       -0.7614817720	        0.3092650845	        0.0320692180	        0.0000000000	        0.0000000000	        0.0000000000	        0.0000000000	        0.0000000000	        0.0000000000	        0.0000000000	        0.0000000000	        0.0000000000	
        0.2510454146	      -19.9751527645	      550.7609338863	      -18.9295804336	        0.2873801069	        0.0000000000	        0.0502549158	       -0.8605738804	        0.3446913969	        0.0330253174	        0.0000000000	        0.0000000000	        0.0000000000	        0.0000000000	        0.0000000000	        0.0000000000	        0.0000000000	        0.0000000000	        0.0000000000	
        0.2624565698	      -17.2351393410	      545.6320235787	      -19.0166589245	        0.2911489027	        0.0000000000	        0.0495511192	       -0.9864931919	        0.3904826651	        0.0346991020	        0.0000000000	        0.0000000000	        0.0000000000	        0.0000000000	        0.0000000000	        0.0000000000	        0.0000000000	        0.0000000000	        0.0000000000	
        0.2738677250	      -14.3577208480	      542.9788938384	      -19.0056249645	        0.2942866427	        0.0000000000	        0.0489452266	       -1.1255318162	        0.4413462369	        0.0361890512	        0.0000000000	        0.0000000000	        0.0000000000	        0.0000000000	        0.0000000000	        0.0000000000	        0.0000000000	        0.0000000000	        0.0000000000	
        0.2852788802	      -11.1637359959	      542.6132740171	      -18.8023168505	        0.2968159502	        0.0000000000	        0.0484377941	       -1.2639954741	        0.4921794790	        0.0367533209	        0.0000000000	        0.0000000000	        0.0000000000	        0.0000000000	        0.0000000000	        0.0000000000	        0.0000000000	        0.0000000000	        0.0000000000	
        0.2966900354	       -7.7321175911	      543.2557910860	      -18.2397246088	        0.2990017278	        0.0000000000	        0.0479904069	       -1.3939234717	        0.5401160650	        0.0358228148	        0.0000000000	        0.0000000000	        0.0000000000	        0.0000000000	        0.0000000000	        0.0000000000	        0.0000000000	        0.0000000000	        0.0000000000	
        0.3081011906	       -3.9913565319	      545.4682512320	      -17.2066955311	        0.3010667169	        0.0000000000	        0.0475646348	       -1.5144877560	        0.5849470384	        0.0327386991	        0.0000000000	        0.0000000000	        0.0000000000	        0.0000000000	        0.0000000000	        0.0000000000	        0.0000000000	        0.0000000000	        0.0000000000	
        0.3195123458	        0.2443444337	      549.9562015610	      -16.1121062106	        0.3030683841	        0.0000000000	        0.0471395461	       -1.6280183003	        0.6275999222	        0.0268758006	        0.0000000000	        0.0000000000	        0.0000000000	        0.0000000000	        0.0000000000	        0.0000000000	        0.0000000000	        0.0000000000	        0.0000000000	
        0.3309235010	        5.2156957125	      557.4646871821	      -14.8966902114	        0.3050329695	        0.0000000000	        0.0467083795	       -1.7388148539	        0.6697675624	        0.0181052045	        0.0000000000	        0.0000000000	        0.0000000000	        0.0000000000	        0.0000000000	        0.0000000000	        0.0000000000	        0.0000000000	        0.0000000000	
